<svg xmlns="http://www.w3.org/2000/svg" xmlns:xlink="http://www.w3.org/1999/xlink" width="20" height="20" viewBox="0 0 20 20">
  <defs>
    <clipPath id="clip-path">
      <rect id="Rectangle_3448" data-name="Rectangle 3448" width="20" height="20" transform="translate(0)" fill="#61606a"/>
    </clipPath>
  </defs>
  <g id="Group_14059" data-name="Group 14059" transform="translate(0)">
    <g id="Group_14062" data-name="Group 14062" clip-path="url(#clip-path)">
      <path id="Path_8821" data-name="Path 8821" d="M111.687,71.1a6.9,6.9,0,0,0-5.2-4.3c-.281-.059-.569-.086-.854-.127h-1.016l-.158.03a10.578,10.578,0,0,0-1.076.2,7.062,7.062,0,0,0-4.772,4.315,5.793,5.793,0,0,0-.418,2.838,7.654,7.654,0,0,0,.734,2.4,21.209,21.209,0,0,0,2.063,3.43c.588.821,1.181,1.639,1.809,2.429a3.056,3.056,0,0,0,4.817-.061c.72-.939,1.422-1.895,2.091-2.87a19.3,19.3,0,0,0,2-3.6,5.4,5.4,0,0,0,.478-1.877,6.606,6.606,0,0,0-.492-2.8M110.3,75.727a22.771,22.771,0,0,1-2.134,3.579q-.783,1.1-1.614,2.166a1.753,1.753,0,0,1-2.718.039,33.774,33.774,0,0,1-3.433-5.079,8.393,8.393,0,0,1-.865-2.165,4.122,4.122,0,0,1,.144-2.1,5.638,5.638,0,0,1,4.572-4.112,2.777,2.777,0,0,1,.325-.041c.2-.016.4-.028.6-.041a5.749,5.749,0,0,1,5.6,4.711,4.926,4.926,0,0,1-.485,3.044" transform="translate(-94.84 -65.06)" fill="#61606a"/>
      <path id="Path_8822" data-name="Path 8822" d="M198.338,163.568a2.741,2.741,0,0,0-2.783,2.8,2.785,2.785,0,0,0,5.569,0,2.738,2.738,0,0,0-2.786-2.8m0,4.24a1.459,1.459,0,0,1-1.467-1.485,1.474,1.474,0,0,1,2.947,0,1.454,1.454,0,0,1-1.48,1.486" transform="translate(-187.975 -157.717)" fill="#61606a"/>
    </g>
  </g>
</svg>
